<svg width="24" height="25" viewBox="0 0 24 25" fill="none" xmlns="http://www.w3.org/2000/svg">
<g id="fe:target">
<path id="Vector" d="M19.938 13C19.7154 14.7624 18.9129 16.4007 17.6568 17.6568C16.4007 18.9129 14.7624 19.7154 13 19.938V22H11V19.938C9.23761 19.7154 7.59934 18.9129 6.34324 17.6568C5.08713 16.4007 4.28459 14.7624 4.062 13H2V11H4.062C4.28459 9.23761 5.08713 7.59934 6.34324 6.34324C7.59934 5.08713 9.23761 4.28459 11 4.062V2H13V4.062C14.7624 4.28459 16.4007 5.08713 17.6568 6.34324C18.9129 7.59934 19.7154 9.23761 19.938 11H22V13H19.938ZM12 18C13.5913 18 15.1174 17.3679 16.2426 16.2426C17.3679 15.1174 18 13.5913 18 12C18 10.4087 17.3679 8.88258 16.2426 7.75736C15.1174 6.63214 13.5913 6 12 6C10.4087 6 8.88258 6.63214 7.75736 7.75736C6.63214 8.88258 6 10.4087 6 12C6 13.5913 6.63214 15.1174 7.75736 16.2426C8.88258 17.3679 10.4087 18 12 18ZM12 15C12.7956 15 13.5587 14.6839 14.1213 14.1213C14.6839 13.5587 15 12.7956 15 12C15 11.2044 14.6839 10.4413 14.1213 9.87868C13.5587 9.31607 12.7956 9 12 9C11.2044 9 10.4413 9.31607 9.87868 9.87868C9.31607 10.4413 9 11.2044 9 12C9 12.7956 9.31607 13.5587 9.87868 14.1213C10.4413 14.6839 11.2044 15 12 15Z" fill="#666666"/>
</g>
</svg>
