<svg width="25" height="24" viewBox="0 0 25 24" fill="none" xmlns="http://www.w3.org/2000/svg">
<path d="M15.6719 21V13C15.6719 12.7348 15.5665 12.4804 15.379 12.2929C15.1914 12.1054 14.9371 12 14.6719 12H10.6719C10.4067 12 10.1523 12.1054 9.96477 12.2929C9.77723 12.4804 9.67188 12.7348 9.67188 13V21" stroke="#4B5563" stroke-width="2" stroke-linecap="round" stroke-linejoin="round"/>
<path d="M3.67188 10C3.67181 9.70907 3.73521 9.42162 3.85766 9.15771C3.98012 8.89381 4.15867 8.65979 4.38088 8.472L11.3809 2.473C11.7419 2.16791 12.1992 2.00052 12.6719 2.00052C13.1445 2.00052 13.6019 2.16791 13.9629 2.473L20.9629 8.472C21.1851 8.65979 21.3636 8.89381 21.4861 9.15771C21.6085 9.42162 21.6719 9.70907 21.6719 10V19C21.6719 19.5304 21.4612 20.0391 21.0861 20.4142C20.711 20.7893 20.2023 21 19.6719 21H5.67188C5.14144 21 4.63273 20.7893 4.25766 20.4142C3.88259 20.0391 3.67188 19.5304 3.67188 19V10Z" stroke="#4B5563" stroke-width="2" stroke-linecap="round" stroke-linejoin="round"/>
</svg>
