<svg width="27" height="27" viewBox="0 0 27 27" fill="none" xmlns="http://www.w3.org/2000/svg">
<g id="mdi:credit-card-check">
<path id="Vector" d="M22.5 4.5H4.5C3.90326 4.5 3.33097 4.73705 2.90901 5.15901C2.48705 5.58097 2.25 6.15326 2.25 6.75V20.25C2.25 20.8467 2.48705 21.419 2.90901 21.841C3.33097 22.2629 3.90326 22.5 4.5 22.5H14.7262C14.6588 22.1287 14.625 21.7575 14.625 21.375C14.625 17.6512 17.6512 14.625 21.375 14.625C22.5675 14.625 23.7262 14.94 24.75 15.5363V6.75C24.75 5.50125 23.7488 4.5 22.5 4.5ZM22.5 12.375H4.5V9H22.5M19.9688 24.75L16.875 21.375L18.18 20.07L19.9688 21.8587L24.0075 17.82L25.3125 19.4062L19.9688 24.75Z" fill="#0763C2"/>
</g>
</svg>
