<svg width="26" height="26" viewBox="0 0 26 26" fill="none" xmlns="http://www.w3.org/2000/svg">
<path d="M4.0625 4.875C2.72594 4.875 1.625 5.97594 1.625 7.3125V18.6875C1.625 20.0241 2.72594 21.125 4.0625 21.125H21.9375C23.2741 21.125 24.375 20.0241 24.375 18.6875V7.3125C24.375 5.97594 23.2741 4.875 21.9375 4.875H4.0625ZM4.0625 6.5H21.9375C22.3966 6.5 22.75 6.85344 22.75 7.3125V8.9375H4.0625V10.5625H22.75V18.6875C22.75 19.1466 22.3966 19.5 21.9375 19.5H4.0625C3.60344 19.5 3.25 19.1466 3.25 18.6875V7.3125C3.25 6.85344 3.60344 6.5 4.0625 6.5Z" fill="#4B5563"/>
</svg>
