<svg width="27" height="27" viewBox="0 0 27 27" fill="none" xmlns="http://www.w3.org/2000/svg">
<g id="mdi:credit-card-check-outline">
<path id="Vector" d="M14.625 21.375C14.625 20.9925 14.67 20.6213 14.7263 20.25H3.375V13.5H21.375V14.625C22.1625 14.625 22.9163 14.7713 23.625 15.0188V6.75C23.625 5.50125 22.6238 4.5 21.375 4.5H3.375C2.12625 4.5 1.125 5.50125 1.125 6.75V20.25C1.125 20.8467 1.36205 21.419 1.78401 21.841C2.20597 22.2629 2.77826 22.5 3.375 22.5H14.7263C14.67 22.1287 14.625 21.7575 14.625 21.375ZM3.375 6.75H21.375V9H3.375V6.75ZM19.9688 24.75L16.875 21.375L18.18 20.07L19.9688 21.8588L24.0075 17.82L25.3125 19.4062L19.9688 24.75Z" fill="#757575"/>
</g>
</svg>
